PathFileType	4	(X/Y/Z)	/Users/itak/Documents/Research/Walk-IL/dataset/trc/00389_00012.trc
DataRate	CameraRate	NumFrames	NumMarkers	Units	OrigDataRate	OrigDataStartFrame	OrigNumFrames
100.000000	100.000000	4	53	mm	100.000000	304	608
Frame#	Time	RPSI			LPSI			L3			STRN			T10			C7			CLAV			RBAK			LBAK			LSHO			LUPA			LAEL			LAOL			LWTS			LWPS			LFRA			LIFD			LHPS			LHTS			RSHO			RUPA			RAEL			RAOL			RWTS			RWPS			RFRA			RIFD			RHTS			RHPS			RBHD			LFHD			RFHD			LBHD			LHIP			RHIP			RASI			LASI			LKNE			LTHI			LANK			LTIP			LTOE			LMT1			LMT5			LHEE			RKNE			RANK			RTIP			RTOE			RMT1			RMT5			RHEE			RTHI			
		X1	Y1	Z1	X2	Y2	Z2	X3	Y3	Z3	X4	Y4	Z4	X5	Y5	Z5	X6	Y6	Z6	X7	Y7	Z7	X8	Y8	Z8	X9	Y9	Z9	X10	Y10	Z10	X11	Y11	Z11	X12	Y12	Z12	X13	Y13	Z13	X14	Y14	Z14	X15	Y15	Z15	X16	Y16	Z16	X17	Y17	Z17	X18	Y18	Z18	X19	Y19	Z19	X20	Y20	Z20	X21	Y21	Z21	X22	Y22	Z22	X23	Y23	Z23	X24	Y24	Z24	X25	Y25	Z25	X26	Y26	Z26	X27	Y27	Z27	X28	Y28	Z28	X29	Y29	Z29	X30	Y30	Z30	X31	Y31	Z31	X32	Y32	Z32	X33	Y33	Z33	X34	Y34	Z34	X35	Y35	Z35	X36	Y36	Z36	X37	Y37	Z37	X38	Y38	Z38	X39	Y39	Z39	X40	Y40	Z40	X41	Y41	Z41	X42	Y42	Z42	X43	Y43	Z43	X44	Y44	Z44	X45	Y45	Z45	X46	Y46	Z46	X47	Y47	Z47	X48	Y48	Z48	X49	Y49	Z49	X50	Y50	Z50	X51	Y51	Z51	X52	Y52	Z52	X53	Y53	Z53	

305	3.04	310.7785339355469	956.8320922851562	23.22051620483398	303.130126953125	953.4271850585938	-109.4843368530273	309.7865295410156	1045.27978515625	-39.90338134765625	552.5689697265625	1208.578369140625	-34.08959197998047	305.1224975585938	1147.893798828125	-45.82114791870117	337.9115905761719	1398.974365234375	-49.24882125854492	495.083251953125	1326.111083984375	-34.73783493041992	295.7050476074219	1250.522827148438	10.51743602752686	330.7885131835938	1365.699951171875	-153.8933715820312	421.8377990722656	1385.545288085938	-197.7777862548828	406.9928283691406	1273.322998046875	-275.5115051269531	436.4234924316406	1077.4169921875	-304.6181030273438	367.6367492675781	1053.368896484375	-254.5928497314453	529.4027099609375	866.63525390625	-246.2810668945312	494.596435546875	852.6044311523438	-320.0416259765625	459.9618225097656	974.5872802734375	-313.0978088378906	542.9417724609375	688.8115234375	-254.3774566650391	513.4926147460938	768.8366088867188	-311.8345336914062	558.0969848632812	772.9180908203125	-265.7211608886719	384.0842895507812	1376.5419921875	111.505500793457	367.7583923339844	1309.224487304688	168.3255310058594	397.6661987304688	1051.153930664062	206.0982513427734	379.2340698242188	1034.881958007812	112.8200454711914	589.8228759765625	890.6416015625	178.245849609375	552.253662109375	863.1539306640625	235.5447387695312	441.9591369628906	992.8407592773438	220.0331420898438	649.1304321289062	727.4681396484375	176.2989654541016	642.3084106445312	797.6692504882812	195.5841674804688	586.3656616210938	780.05322265625	232.2920684814453	371.5886535644531	1582.640380859375	48.60993576049805	515.5016479492188	1599.774047851562	-88.096435546875	503.0569152832031	1601.870849609375	34.06788635253906	370.03466796875	1576.73193359375	-113.0829086303711	389.5707702636719	951.7236328125	-225.2844390869141	399.8026733398438	942.2937622070312	134.0027465820312	525.428466796875	963.3574829101562	73.64234161376953	502.2621154785156	957.7590942382812	-187.8160400390625	515.16064453125	464.1688232421875	-173.7009124755859	484.2152099609375	603.1281127929688	-197.47900390625	386.6314697265625	41.57261657714844	-125.3678970336914	456.3983459472656	233.8779449462891	-158.0274658203125	601.8924560546875	34.11615753173828	-61.2442512512207	519.462890625	36.2968635559082	-28.34229278564453	514.5709838867188	42.0381965637207	-132.2198944091797	345.5109558105469	37.44612503051758	-70.95966339111328	625.5382690429688	500.7580261230469	96.03310394287109	406.3752136230469	125.781005859375	113.4265594482422	593.44873046875	378.7001342773438	94.90337371826172	551.4338989257812	44.37920379638672	39.71643829345703	485.970703125	72.40906524658203	14.53812694549561	475.33056640625	75.02691650390625	114.9503021240234	333.2745971679688	148.0225982666016	63.53982925415039	546.556884765625	743.7929077148438	125.8373870849609	
306	3.05	301.8875427246094	957.0557861328125	23.29622077941895	294.5870361328125	953.5064697265625	-109.4085845947266	301.1768798828125	1045.293701171875	-39.72838973999023	543.317138671875	1208.790771484375	-33.92130661010742	296.2775268554688	1147.82080078125	-45.56619262695312	328.4227905273438	1398.991333007812	-48.79730224609375	485.7048950195312	1326.238159179688	-34.477783203125	286.4318237304688	1250.460205078125	10.95357036590576	321.1463623046875	1365.722778320312	-153.3706817626953	412.1179504394531	1385.583984375	-197.4285888671875	396.7927551269531	1273.419067382812	-275.1686401367188	425.5996398925781	1077.519409179688	-304.7781372070312	357.0733337402344	1053.525146484375	-254.3226165771484	518.0157470703125	866.1828002929688	-247.703369140625	482.6080932617188	852.5658569335938	-321.2414855957031	448.6393127441406	974.6383666992188	-313.6934814453125	530.5048217773438	688.3228149414062	-256.5983276367188	501.2091674804688	768.700927734375	-313.4818725585938	546.0833129882812	772.3998413085938	-267.6538391113281	374.7311401367188	1376.545532226562	111.8782958984375	358.4197692871094	1309.17138671875	168.6350250244141	388.3968505859375	1050.990112304688	206.5610198974609	370.4356079101562	1034.803588867188	113.077507019043	580.11865234375	890.1278076171875	179.6100311279297	542.2764892578125	862.7760620117188	236.7349548339844	432.4036560058594	992.6962280273438	220.700927734375	639.2112426757812	726.8989868164062	178.1643676757812	632.2775268554688	797.1009521484375	197.3208160400391	576.2958374023438	779.644775390625	233.7643280029297	361.6322631835938	1582.498291015625	49.20302581787109	505.2748718261719	1600.2236328125	-87.75785064697266	492.9929809570312	1602.268310546875	34.3392333984375	359.8912353515625	1576.628051757812	-112.6070785522461	381.3333435058594	951.7969970703125	-224.9837341308594	390.52734375	942.3091430664062	134.1451721191406	516.9155883789062	963.2122192382812	74.17350769042969	493.9099731445312	957.997314453125	-187.3713073730469	510.3856811523438	465.0969543457031	-173.7468566894531	477.9564514160156	603.685546875	-197.5165863037109	386.5357971191406	41.33472442626953	-125.4740676879883	454.1150512695312	234.2102661132812	-158.1326141357422	601.7893676757812	34.21782302856445	-61.23218154907227	519.4090576171875	36.31722259521484	-28.35746955871582	514.5015869140625	42.02951049804688	-132.2842254638672	345.4485168457031	37.101318359375	-71.08496856689453	608.9977416992188	496.89306640625	96.44194793701172	373.9477233886719	132.1379089355469	113.7129669189453	572.29443359375	376.3908081054688	95.22512817382812	514.845703125	44.47905349731445	39.56188583374023	450.8231201171875	75.15170288085938	14.60655117034912	440.6834106445312	78.53028869628906	115.1875457763672	301.7915344238281	157.4527282714844	63.98696899414062	535.4646606445312	741.6355590820312	125.7456741333008	
307	3.06	293.0136413574219	957.1002197265625	23.40855598449707	285.9797058105469	953.4104614257812	-109.282585144043	292.5113220214844	1045.113159179688	-39.47661209106445	534.032470703125	1208.823364257812	-33.76187133789062	287.4106140136719	1147.581420898438	-45.19887542724609	318.889404296875	1398.82666015625	-48.29333877563477	476.2799987792969	1326.171630859375	-34.22751998901367	277.1246948242188	1250.21435546875	11.50125598907471	311.4082946777344	1365.543701171875	-152.7978820800781	402.2813415527344	1385.397583007812	-197.0735473632812	386.4391479492188	1273.245361328125	-274.7504272460938	414.6573791503906	1077.366577148438	-304.84326171875	346.4935913085938	1053.397338867188	-253.9024047851562	506.6713562011719	865.5505981445312	-249.0776062011719	470.6340026855469	852.3250122070312	-322.3509521484375	437.2637329101562	974.4563598632812	-314.202392578125	518.16259765625	687.6563110351562	-258.7493286132812	488.9881591796875	768.3832397460938	-315.0545349121094	534.1370849609375	771.7111206054688	-269.5411987304688	365.4024353027344	1376.37451171875	112.2848281860352	349.1449279785156	1308.943725585938	169.0025177001953	379.1845092773438	1050.660766601562	207.0657653808594	361.6446228027344	1034.546752929688	113.396728515625	570.42236328125	889.3872680664062	181.0341949462891	532.2962036132812	862.2117919921875	237.9955596923828	422.8865051269531	992.3826293945312	221.4075012207031	629.3167114257812	726.1111450195312	180.278076171875	622.2650146484375	796.3338623046875	199.2363891601562	566.2265014648438	779.0614013671875	235.4027404785156	351.6566467285156	1582.158813476562	49.82877731323242	495.0340881347656	1600.515625	-87.42701721191406	482.8959655761719	1602.477172851562	34.64154815673828	349.7199096679688	1576.342407226562	-112.1082763671875	372.9678649902344	951.7537231445312	-224.6722412109375	381.2171325683594	942.1364135742188	134.2962646484375	508.4050903320312	962.8703002929688	74.70328521728516	485.4792785644531	958.119873046875	-186.9173126220703	505.8265075683594	465.9663696289062	-173.7550201416016	471.85595703125	604.1488037109375	-197.5706329345703	386.442138671875	41.11021041870117	-125.6193771362305	451.9664916992188	234.5287322998047	-158.2239532470703	601.6971435546875	34.30748748779297	-61.20457077026367	519.3734130859375	36.39752578735352	-28.38581275939941	514.4407348632812	42.01951217651367	-132.3525390625	345.3736572265625	36.80380249023438	-71.24959564208984	591.7284545898438	492.7774353027344	97.12206268310547	341.9422302246094	138.2470703125	113.856575012207	550.643798828125	373.9330749511719	95.77989196777344	478.5630798339844	44.71857070922852	39.28236389160156	416.0335083007812	77.9576416015625	14.51873302459717	406.3626098632812	81.89669799804688	115.2775802612305	270.9294738769531	166.6859130859375	64.24362945556641	524.078125	739.2546997070312	125.5759201049805	
308	3.07	284.1888122558594	956.9786376953125	23.56088829040527	277.3355712890625	953.13818359375	-109.1064682006836	283.7973022460938	1044.74658203125	-39.16415405273438	524.704345703125	1208.690673828125	-33.60311508178711	278.4778137207031	1147.186157226562	-44.72477340698242	309.2987365722656	1398.489013671875	-47.73798370361328	466.7958068847656	1325.930053710938	-33.98241424560547	267.7918395996094	1249.786865234375	12.15949821472168	301.571044921875	1365.172607421875	-152.1795043945312	392.3215637207031	1385.001953125	-196.7101440429688	375.9390258789062	1272.817993164062	-274.2527465820312	403.5899047851562	1076.975708007812	-304.8074951171875	335.91650390625	1053.001098632812	-253.3280487060547	495.3663635253906	864.7525024414062	-250.4007568359375	458.6683044433594	851.8922119140625	-323.3615417480469	425.8297424316406	974.0555419921875	-314.6198425292969	505.9377746582031	686.8231811523438	-260.7974548339844	476.8181762695312	767.8936767578125	-316.5394897460938	522.2652587890625	770.8641357421875	-271.380126953125	356.0789489746094	1376.044311523438	112.7238159179688	339.9266662597656	1308.557006835938	169.4297027587891	370.0066223144531	1050.181640625	207.6114196777344	352.8545532226562	1034.1328125	113.7672348022461	560.7244873046875	888.4335327148438	182.5031433105469	522.2987060546875	861.4750366210938	239.3162689208984	413.4031372070312	991.9182739257812	222.1462707519531	619.4022827148438	725.1085205078125	182.5998992919922	612.2525024414062	795.3749389648438	201.2990570068359	556.114990234375	778.3090209960938	237.1773834228516	341.6677551269531	1581.637573242188	50.47726058959961	484.7799377441406	1600.642822265625	-87.0948486328125	472.7691650390625	1602.4951171875	34.97998428344727	339.5253295898438	1575.88720703125	-111.5887985229492	364.52001953125	951.5838012695312	-224.3442993164062	371.9110107421875	941.7918090820312	134.4594116210938	499.896728515625	962.3492431640625	75.22170257568359	476.9638061523438	958.1302490234375	-186.4587097167969	501.451904296875	466.7846069335938	-173.7055358886719	465.9054565429688	604.5214233398438	-197.6178131103516	386.3403625488281	40.9066276550293	-125.795280456543	449.9403381347656	234.8377838134766	-158.2846221923828	601.6102294921875	34.38409423828125	-61.15815353393555	519.34130859375	36.51191711425781	-28.42481231689453	514.3880004882812	42.01467895507812	-132.4178009033203	345.2850036621094	36.54754638671875	-71.43441009521484	573.7704467773438	488.4900512695312	98.05139923095703	310.4232788085938	144.0107727050781	113.8631057739258	528.5612182617188	371.3669738769531	96.54408264160156	442.6902160644531	45.03978729248047	38.83933639526367	381.6358032226562	80.74597930908203	14.23020553588867	372.4078674316406	85.01433563232422	115.1814880371094	240.7369384765625	175.615478515625	64.35205841064453	512.4129638671875	736.6869506835938	125.3727874755859	
